<svg width="31" height="36" viewBox="0 0 31 36" fill="none" xmlns="http://www.w3.org/2000/svg">
<path d="M26.1522 7.60377L16.341 2.34086C15.85 2.07763 15.0585 2.07763 14.5718 2.34057L4.82327 7.60377C4.33626 7.86672 4.33905 8.29267 4.83009 8.5559L14.6413 13.8191C15.1317 14.0815 15.9234 14.082 16.4108 13.8194L26.1593 8.5559C26.6457 8.29296 26.6426 7.86672 26.1522 7.60377ZM16.669 8.71229C16.0233 9.06105 14.9711 9.06019 14.321 8.71171C13.67 8.36237 13.6666 7.79673 14.3127 7.44797C14.9596 7.09891 16.0109 7.09891 16.6615 7.44797C17.3116 7.79673 17.3156 8.36294 16.669 8.71229Z" fill="#FFA54E"/>
<path d="M27.2381 9.37411C27.2366 8.85081 26.8382 8.63913 26.3472 8.90236L16.5363 14.1653C16.0459 14.4282 15.6497 15.0667 15.6509 15.5897L15.6829 26.064C15.6844 26.587 16.0837 26.7987 16.5741 26.5357L26.385 21.2731C26.8757 21.0099 27.2713 20.372 27.2697 19.849L27.2381 9.37411ZM18.5457 17.4315C17.8957 17.7803 17.3659 17.5009 17.364 16.8057C17.3618 16.1116 17.8879 15.2646 18.5383 14.9158C19.1893 14.5665 19.7185 14.8475 19.7203 15.5416C19.7225 16.2369 19.1973 17.0821 18.5457 17.4315ZM21.4644 18.9769C20.814 19.3257 20.2842 19.0463 20.2823 18.3514C20.2799 17.657 20.8066 16.81 21.4566 16.4615C22.1079 16.1122 22.6368 16.3932 22.6387 17.087C22.6405 17.782 22.1154 18.6278 21.4644 18.9769ZM24.3827 20.5223C23.7323 20.8711 23.2025 20.5914 23.2007 19.8962C23.1985 19.2012 23.7249 18.3551 24.3753 18.0063C25.0263 17.657 25.5551 17.9369 25.557 18.6322C25.5589 19.3274 25.0337 20.173 24.3827 20.5223Z" fill="#FFA54E"/>
<path d="M14.4385 14.1728L4.62611 8.90927C4.136 8.64633 3.73765 8.85743 3.7361 9.3813L3.70417 19.8559C3.70262 20.3789 4.09818 21.0165 4.58829 21.2792L14.4004 26.5429C14.8905 26.8056 15.2889 26.5939 15.2904 26.0706L15.3223 15.5961C15.3245 15.0722 14.9283 14.4354 14.4385 14.1728ZM6.61042 20.7939C5.95911 20.4445 5.43397 19.5987 5.43583 18.9043C5.438 18.2091 5.96686 17.9291 6.61786 18.2785C7.26824 18.6275 7.79431 19.4728 7.79214 20.1681C7.78997 20.8621 7.26049 21.1426 6.61042 20.7939ZM6.61042 14.3182C5.95942 13.9689 5.43397 13.1236 5.43614 12.4283C5.438 11.7334 5.96717 11.4535 6.61786 11.8028C7.26824 12.1516 7.79431 12.9974 7.79245 13.6927C7.79059 14.3873 7.2608 14.667 6.61042 14.3182ZM9.50954 18.9841C8.85854 18.6347 8.33309 17.7889 8.33526 17.0945C8.33743 16.3993 8.86629 16.1194 9.51698 16.4684C10.1674 16.8175 10.6934 17.663 10.6913 18.3583C10.6894 19.0523 10.1599 19.3329 9.50954 18.9841ZM12.4096 23.6503C11.7586 23.3012 11.2331 22.4548 11.235 21.7604C11.2372 21.0652 11.766 20.7852 12.417 21.1346C13.0671 21.4834 13.5925 22.3289 13.5904 23.0242C13.5885 23.7179 13.0597 23.999 12.4096 23.6503ZM12.409 17.174C11.7586 16.825 11.2325 15.9794 11.2347 15.2842C11.2369 14.5901 11.7663 14.3096 12.4167 14.6583C13.0677 15.0074 13.5932 15.8538 13.591 16.5482C13.5888 17.2434 13.06 17.5231 12.409 17.174Z" fill="#FFA54E"/>
</svg>
