<?xml version="1.0" encoding="UTF-8"?>
<!DOCTYPE svg PUBLIC "-//W3C//DTD SVG 1.1//EN" "http://www.w3.org/Graphics/SVG/1.1/DTD/svg11.dtd">
<svg xmlns="http://www.w3.org/2000/svg" version="1.1" width="716px" height="716px" style="shape-rendering:geometricPrecision; text-rendering:geometricPrecision; image-rendering:optimizeQuality; fill-rule:evenodd; clip-rule:evenodd" xmlns:xlink="http://www.w3.org/1999/xlink">
<g><path style="opacity:1" fill="#ffa54f" d="M 413.5,72.5 C 413.821,74.0481 414.821,74.7148 416.5,74.5C 424.991,78.5782 433.324,82.9116 441.5,87.5C 441.821,89.0481 442.821,89.7148 444.5,89.5C 457.167,96.1667 469.833,102.833 482.5,109.5C 482.821,111.048 483.821,111.715 485.5,111.5C 498.167,118.167 510.833,124.833 523.5,131.5C 523.821,133.048 524.821,133.715 526.5,133.5C 539.167,140.167 551.833,146.833 564.5,153.5C 564.821,155.048 565.821,155.715 567.5,155.5C 575.991,159.578 584.324,163.912 592.5,168.5C 592.821,170.048 593.821,170.715 595.5,170.5C 600.883,172.517 605.55,175.517 609.5,179.5C 609.427,181.027 610.094,182.027 611.5,182.5C 612.83,185.44 612.663,188.44 611,191.5C 608.795,194.04 606.295,196.207 603.5,198C 526.421,239.872 449.088,281.205 371.5,322C 355.665,325.766 340.998,323.1 327.5,314C 255.279,275.392 183.279,236.559 111.5,197.5C 111.027,196.094 110.027,195.427 108.5,195.5C 102.852,192.573 101.019,187.906 103,181.5C 105.282,178.432 108.116,175.932 111.5,174C 186.167,133.667 260.833,93.3333 335.5,53C 346.173,48.4519 357.173,47.4519 368.5,50C 383.764,56.9653 398.764,64.4653 413.5,72.5 Z M 384.5,171.5 C 384.973,172.906 385.973,173.573 387.5,173.5C 389.127,175.63 390.96,177.63 393,179.5C 396.65,186.234 395.484,192.068 389.5,197C 386.3,199.099 382.967,200.933 379.5,202.5C 377.597,202.796 375.93,203.463 374.5,204.5C 359.786,207.894 345.453,206.727 331.5,201C 316.857,192.867 315.857,183.534 328.5,173C 346.938,163.76 365.604,163.26 384.5,171.5 Z"/></g>
<g><path style="opacity:0.937" fill="#ffcfa1" d="M 413.5,72.5 C 414.71,72.9321 415.71,73.5987 416.5,74.5C 414.821,74.7148 413.821,74.0481 413.5,72.5 Z"/></g>
<g><path style="opacity:0.875" fill="#ffd2a7" d="M 441.5,87.5 C 442.71,87.9321 443.71,88.5987 444.5,89.5C 442.821,89.7148 441.821,89.0481 441.5,87.5 Z"/></g>
<g><path style="opacity:0.875" fill="#ffd2a7" d="M 482.5,109.5 C 483.71,109.932 484.71,110.599 485.5,111.5C 483.821,111.715 482.821,111.048 482.5,109.5 Z"/></g>
<g><path style="opacity:0.937" fill="#ffcfa1" d="M 523.5,131.5 C 524.71,131.932 525.71,132.599 526.5,133.5C 524.821,133.715 523.821,133.048 523.5,131.5 Z"/></g>
<g><path style="opacity:0.937" fill="#ffcfa1" d="M 564.5,153.5 C 565.71,153.932 566.71,154.599 567.5,155.5C 565.821,155.715 564.821,155.048 564.5,153.5 Z"/></g>
<g><path style="opacity:0.875" fill="#ffd2a7" d="M 592.5,168.5 C 593.71,168.932 594.71,169.599 595.5,170.5C 593.821,170.715 592.821,170.048 592.5,168.5 Z"/></g>
<g><path style="opacity:0.624" fill="#ffcd9d" d="M 384.5,171.5 C 386.027,171.427 387.027,172.094 387.5,173.5C 385.973,173.573 384.973,172.906 384.5,171.5 Z"/></g>
<g><path style="opacity:0.498" fill="#ffd6ae" d="M 609.5,179.5 C 610.906,179.973 611.573,180.973 611.5,182.5C 610.094,182.027 609.427,181.027 609.5,179.5 Z"/></g>
<g><path style="opacity:0.624" fill="#ffcd9d" d="M 108.5,195.5 C 110.027,195.427 111.027,196.094 111.5,197.5C 109.973,197.573 108.973,196.906 108.5,195.5 Z"/></g>
<g><path style="opacity:1" fill="#ffa550" d="M 624.5,204.5 C 624.427,206.027 625.094,207.027 626.5,207.5C 628.011,209.476 628.844,211.809 629,214.5C 629.667,297.833 629.667,381.167 629,464.5C 625.432,477.152 617.932,486.652 606.5,493C 530.294,533.936 453.96,574.603 377.5,615C 370.257,616.628 365.091,614.128 362,607.5C 360.769,523.169 360.436,438.836 361,354.5C 361.784,349.627 363.617,345.294 366.5,341.5C 367.906,341.027 368.573,340.027 368.5,338.5C 371.267,333.898 374.934,330.064 379.5,327C 456.833,285.667 534.167,244.333 611.5,203C 616.129,201.978 620.462,202.478 624.5,204.5 Z M 445.5,385.5 C 444.094,385.973 443.427,386.973 443.5,388.5C 442.833,388.5 442.5,388.833 442.5,389.5C 439.5,391.833 436.833,394.5 434.5,397.5C 428.769,401.53 422.436,404.197 415.5,405.5C 411.165,405.163 407.498,403.497 404.5,400.5C 404.573,398.973 403.906,397.973 402.5,397.5C 399.718,375.222 407.718,357.722 426.5,345C 446.016,336.49 455.182,342.99 454,364.5C 452.27,371.959 449.436,378.959 445.5,385.5 Z M 507.5,427.5 C 505.167,429.167 503.167,431.167 501.5,433.5C 496.166,437.499 490.166,439.832 483.5,440.5C 472.803,439.456 467.803,433.456 468.5,422.5C 470.575,404.844 478.908,391.01 493.5,381C 514.765,372.245 523.931,379.412 521,402.5C 518.565,412.042 514.065,420.376 507.5,427.5 Z M 573.5,465.5 C 571.251,466.08 569.585,467.413 568.5,469.5C 562.092,474.769 554.759,476.936 546.5,476C 538.134,471.769 534.634,464.936 536,455.5C 539.467,436.729 549.634,422.895 566.5,414C 580.884,409.691 588.551,415.025 589.5,430C 587.811,443.54 582.477,455.374 573.5,465.5 Z"/></g>
<g><path style="opacity:1" fill="#ffa650" d="M 143.5,224.5 C 143.821,226.048 144.821,226.715 146.5,226.5C 159.167,233.167 171.833,239.833 184.5,246.5C 184.821,248.048 185.821,248.715 187.5,248.5C 200.167,255.167 212.833,261.833 225.5,268.5C 225.821,270.048 226.821,270.715 228.5,270.5C 250.5,282.167 272.5,293.833 294.5,305.5C 294.821,307.048 295.821,307.715 297.5,307.5C 309.806,313.987 322.14,320.487 334.5,327C 339.399,330.397 343.399,334.564 346.5,339.5C 346.427,341.027 347.094,342.027 348.5,342.5C 350.656,345.437 352.156,348.771 353,352.5C 353.667,436.167 353.667,519.833 353,603.5C 350.086,615.701 342.92,618.867 331.5,613C 255.772,572.138 180.105,531.305 104.5,490.5C 104.027,489.094 103.027,488.427 101.5,488.5C 96.463,485.762 92.7964,481.762 90.5,476.5C 90.7148,474.821 90.0481,473.821 88.5,473.5C 86.641,470.088 85.4744,466.422 85,462.5C 84.6256,378.498 84.959,294.498 86,210.5C 89.1204,203.026 94.6204,200.526 102.5,203C 116.193,210.179 129.86,217.346 143.5,224.5 Z M 136.5,316.5 C 136.573,314.973 135.906,313.973 134.5,313.5C 129.408,305.39 126.408,296.556 125.5,287C 127.154,270.312 135.82,265.312 151.5,272C 167.626,282.231 176.959,296.898 179.5,316C 177.476,331.512 169.143,336.512 154.5,331C 147.758,327.092 141.758,322.258 136.5,316.5 Z M 261.5,365.5 C 261.279,362.933 260.612,360.599 259.5,358.5C 259.659,335.082 269.992,329.249 290.5,341C 303.825,351.003 311.158,364.336 312.5,381C 313.587,391.904 308.754,398.071 298,399.5C 291.937,398.702 286.437,396.536 281.5,393C 272.681,385.355 266.014,376.188 261.5,365.5 Z M 220.5,380.5 C 220.973,381.906 221.973,382.573 223.5,382.5C 230.278,387.611 235.611,393.945 239.5,401.5C 239.932,402.71 240.599,403.71 241.5,404.5C 245.457,413.833 246.457,423.5 244.5,433.5C 243.094,433.973 242.427,434.973 242.5,436.5C 233.871,441.83 225.204,441.664 216.5,436C 198.028,422.917 190.861,405.417 195,383.5C 198.066,379.217 202.232,376.883 207.5,376.5C 211.983,377.439 216.316,378.773 220.5,380.5 Z M 171.5,441.5 C 171.932,442.71 172.599,443.71 173.5,444.5C 178.943,454.423 180.11,464.756 177,475.5C 172.532,482.085 166.365,484.252 158.5,482C 147.89,477.885 139.557,471.052 133.5,461.5C 133.573,459.973 132.906,458.973 131.5,458.5C 126.172,448.699 124.672,438.366 127,427.5C 130.199,420.319 135.699,417.486 143.5,419C 155.957,422.625 165.291,430.125 171.5,441.5 Z M 305.5,507.5 C 305.932,508.71 306.599,509.71 307.5,510.5C 312.742,520.802 313.742,531.469 310.5,542.5C 308.5,543.833 306.833,545.5 305.5,547.5C 295.686,549.951 287.02,547.785 279.5,541C 265.736,529.309 259.236,514.475 260,496.5C 263.504,485.766 270.67,482.266 281.5,486C 291.884,490.553 299.884,497.72 305.5,507.5 Z"/></g>
<g><path style="opacity:0.937" fill="#ffd0a4" d="M 379.5,202.5 C 378.365,204.213 376.698,204.88 374.5,204.5C 375.93,203.463 377.597,202.796 379.5,202.5 Z"/></g>
<g><path style="opacity:0.875" fill="#ffcfa0" d="M 624.5,204.5 C 625.906,204.973 626.573,205.973 626.5,207.5C 625.094,207.027 624.427,206.027 624.5,204.5 Z"/></g>
<g><path style="opacity:0.875" fill="#ffd2a7" d="M 143.5,224.5 C 144.71,224.932 145.71,225.599 146.5,226.5C 144.821,226.715 143.821,226.048 143.5,224.5 Z"/></g>
<g><path style="opacity:0.875" fill="#ffd1a5" d="M 184.5,246.5 C 185.71,246.932 186.71,247.599 187.5,248.5C 185.821,248.715 184.821,248.048 184.5,246.5 Z"/></g>
<g><path style="opacity:0.937" fill="#ffcfa1" d="M 225.5,268.5 C 226.71,268.932 227.71,269.599 228.5,270.5C 226.821,270.715 225.821,270.048 225.5,268.5 Z"/></g>
<g><path style="opacity:0.875" fill="#ffd2a7" d="M 294.5,305.5 C 295.71,305.932 296.71,306.599 297.5,307.5C 295.821,307.715 294.821,307.048 294.5,305.5 Z"/></g>
<g><path style="opacity:0.624" fill="#ffd1a3" d="M 134.5,313.5 C 135.906,313.973 136.573,314.973 136.5,316.5C 135.094,316.027 134.427,315.027 134.5,313.5 Z"/></g>
<g><path style="opacity:0.624" fill="#ffce9e" d="M 368.5,338.5 C 368.573,340.027 367.906,341.027 366.5,341.5C 366.427,339.973 367.094,338.973 368.5,338.5 Z"/></g>
<g><path style="opacity:0.498" fill="#ffd5ac" d="M 346.5,339.5 C 347.906,339.973 348.573,340.973 348.5,342.5C 347.094,342.027 346.427,341.027 346.5,339.5 Z"/></g>
<g><path style="opacity:0.937" fill="#ffcd9e" d="M 259.5,358.5 C 260.612,360.599 261.279,362.933 261.5,365.5C 259.837,363.562 259.171,361.228 259.5,358.5 Z"/></g>
<g><path style="opacity:0.624" fill="#ffcd9d" d="M 220.5,380.5 C 222.027,380.427 223.027,381.094 223.5,382.5C 221.973,382.573 220.973,381.906 220.5,380.5 Z"/></g>
<g><path style="opacity:0.624" fill="#ffd0a3" d="M 445.5,385.5 C 445.573,387.027 444.906,388.027 443.5,388.5C 443.427,386.973 444.094,385.973 445.5,385.5 Z"/></g>
<g><path style="opacity:0.875" fill="#ffc58e" d="M 442.5,389.5 C 440.833,393.167 438.167,395.833 434.5,397.5C 436.833,394.5 439.5,391.833 442.5,389.5 Z"/></g>
<g><path style="opacity:0.561" fill="#ffd3a8" d="M 402.5,397.5 C 403.906,397.973 404.573,398.973 404.5,400.5C 403.094,400.027 402.427,399.027 402.5,397.5 Z"/></g>
<g><path style="opacity:0.937" fill="#ffd1a5" d="M 239.5,401.5 C 241.048,401.821 241.715,402.821 241.5,404.5C 240.599,403.71 239.932,402.71 239.5,401.5 Z"/></g>
<g><path style="opacity:0.875" fill="#ffc996" d="M 507.5,427.5 C 506.5,430.5 504.5,432.5 501.5,433.5C 503.167,431.167 505.167,429.167 507.5,427.5 Z"/></g>
<g><path style="opacity:0.624" fill="#ffce9e" d="M 244.5,433.5 C 244.573,435.027 243.906,436.027 242.5,436.5C 242.427,434.973 243.094,433.973 244.5,433.5 Z"/></g>
<g><path style="opacity:0.937" fill="#ffd1a5" d="M 171.5,441.5 C 173.048,441.821 173.715,442.821 173.5,444.5C 172.599,443.71 171.932,442.71 171.5,441.5 Z"/></g>
<g><path style="opacity:0.498" fill="#ffd5ac" d="M 131.5,458.5 C 132.906,458.973 133.573,459.973 133.5,461.5C 132.094,461.027 131.427,460.027 131.5,458.5 Z"/></g>
<g><path style="opacity:0.812" fill="#ffcc9b" d="M 573.5,465.5 C 572.415,467.587 570.749,468.92 568.5,469.5C 569.585,467.413 571.251,466.08 573.5,465.5 Z"/></g>
<g><path style="opacity:0.937" fill="#ffd0a3" d="M 88.5,473.5 C 90.0481,473.821 90.7148,474.821 90.5,476.5C 89.5987,475.71 88.9321,474.71 88.5,473.5 Z"/></g>
<g><path style="opacity:0.624" fill="#ffcd9d" d="M 101.5,488.5 C 103.027,488.427 104.027,489.094 104.5,490.5C 102.973,490.573 101.973,489.906 101.5,488.5 Z"/></g>
<g><path style="opacity:0.937" fill="#ffd0a3" d="M 305.5,507.5 C 307.048,507.821 307.715,508.821 307.5,510.5C 306.599,509.71 305.932,508.71 305.5,507.5 Z"/></g>
<g><path style="opacity:0.812" fill="#ffcb9a" d="M 310.5,542.5 C 309.833,545.167 308.167,546.833 305.5,547.5C 306.833,545.5 308.5,543.833 310.5,542.5 Z"/></g>
</svg>
